<?xml version="1.0" encoding="utf-8"?>
<!-- Generator: Adobe Illustrator 15.0.0, SVG Export Plug-In . SVG Version: 6.00 Build 0)  -->
<!DOCTYPE svg PUBLIC "-//W3C//DTD SVG 1.1//EN" "http://www.w3.org/Graphics/SVG/1.1/DTD/svg11.dtd">
<svg version="1.1" id="Layer_1" xmlns="http://www.w3.org/2000/svg" xmlns:xlink="http://www.w3.org/1999/xlink" x="0px" y="0px"
	 width="1024px" height="814px" viewBox="0 0 1024 814" enable-background="new 0 0 1024 814" xml:space="preserve">
<path fill="#00619E" d="M116.4,745.58c-15.02,1.479-24.53,16.42-25.8,30.4c-0.99,9.729,5.09,20.039,14.55,23.029
	c11.83,2.65,24.91-3.84,30.05-14.81c3.99-9.59,6.1-20.95,2.63-30.97C134.47,744.8,124.02,744.57,116.4,745.58 M81.29,751.29
	c8.54-14.8,26.14-21.84,42.71-20.9c14.73-0.739,29.49,9.561,32.26,24.341c3.44,18.409-3.13,39.63-18.88,50.609
	c-6.51,4.68-14.36,6.811-22.04,8.66h-13.67c-10.98-2.88-22.37-8.76-26.85-19.86C69.32,779.95,73.91,763.93,81.29,751.29
	 M810.22,730.43c19.271-0.09,38.54,0.011,57.82-0.06c-0.22,5.28-1.69,10.38-3.11,15.439c-12.899,0.46-25.84-0.43-38.71,0.37
	c-2.72,5.101-3,11.38-4.25,17.051c10.99,0.489,21.99,0.029,32.99,0.189c-0.39,4.38-0.979,8.8-2.77,12.86
	c-11.04,0.26-22.07-0.05-33.101,0.1c-1.75,6.53-2.79,13.22-4.06,19.86c13.21,0.49,26.439,0.01,39.649,0.22
	c-0.949,5.08-1.92,10.17-3.04,15.22c-19.479,0.84-39.069,0.66-58.55,0.09C798.38,784.59,804.11,757.45,810.22,730.43 M715.12,730.38
	c6.21-0.02,12.43-0.04,18.649,0.05c-5.659,27.11-11.289,54.24-17.17,81.301c-6.199,0.67-12.439,0.6-18.649,0.159
	C703.12,784.63,708.95,757.43,715.12,730.38 M631.34,730.44c5.84-0.11,11.68-0.11,17.521-0.011c4.09,19.48,6.31,39.32,10.31,58.83
	c2.7-2.56,4.04-6.09,5.88-9.24c9.15-16.51,18.271-33.039,27.44-49.529c6.49-0.221,12.99-0.11,19.49-0.07
	c-15.431,27.28-31.681,54.11-47.45,81.2c-5.78,0.729-11.66,0.82-17.46,0.34c-1.66,0.11-1.65-1.92-2.011-2.99
	C640.5,782.79,636.2,756.57,631.34,730.44 M571.73,730.55c12.43-0.37,24.88-0.069,37.319-0.149c7.021-0.051,15.19,2.33,18.38,9.189
	c3.601,8.9,1.891,19.72-3.109,27.76c-3.53,5.29-9.99,6.891-15.7,8.631c2.96,12.06,7.21,23.77,10.25,35.81
	c-6,0.25-12.3,1.22-18.14-0.46c-4.891-14.46-9.36-29.12-13.631-43.78c7.75,0.11,16.37-1.67,21.551-7.92
	c2.83-3.649,3.67-10.649-1.28-12.88c-6.55-1.52-13.41-0.92-20.061-0.51c-4.699,21.779-9,43.64-13.75,65.41
	c-6.119,0.79-12.319,0.699-18.449,0.09C560.18,784.6,566.17,757.61,571.73,730.55 M505.52,730.45c19.44-0.12,38.89-0.05,58.34-0.04
	c-0.79,5.16-1.88,10.26-3.12,15.32c-13.181,0.59-26.4-0.351-39.57,0.47c-1.53,5.63-2.79,11.34-3.7,17.109
	c11.09,0.341,22.19-0.05,33.29,0.15c-0.52,4.33-1.39,8.62-2.75,12.78c-11.2,0.399-22.42-0.12-33.62,0.21
	c-1.38,6.58-2.77,13.17-3.79,19.83c13.08,0.39,26.18,0.029,39.26,0.14c-0.36,5.25-1.42,10.42-2.92,15.46
	c-19.5,0.44-39.061,0.5-58.55-0.04C494.11,784.71,499.81,757.58,505.52,730.45 M447.16,736.2c14.58-9.05,32.46-4.88,48.64-5.76
	c-0.79,5.14-1.85,10.239-3.05,15.31c-10.21,0.6-20.47-0.47-30.65,0.53c-4.37,0.41-5.92,6.489-2.63,9.26
	c7.53,7.78,15.66,15,23.23,22.76c7.48,7.53,5.75,21.58-3.1,27.29c-15.61,9.93-35.15,5.84-52.61,6.271
	c0.43-5.181,1.5-10.271,2.68-15.32c10.45-0.36,20.92,0.1,31.37-0.15c5.64,0.57,8.43-7.449,4.73-11.18
	c-7.57-8.06-16.83-14.61-23.41-23.57C436.8,753.69,438.46,741.24,447.16,736.2 M362.5,730.45c6.12-0.141,12.23-0.101,18.35-0.03
	c-3.73,22.03-9.23,43.76-12.9,65.82c11.58,0.5,23.18,0,34.77,0.22c-0.87,5.11-1.9,10.19-3.09,15.25
	c-17.85,0.81-35.79,0.59-53.65,0.12C350.76,784.58,356.98,757.56,362.5,730.45 M308.61,730.54c7.02-0.32,14.05-0.13,21.08-0.13
	c3.85,27.08,7.65,54.18,11.07,81.32c-17.52,0.75-35.13,0.6-52.66,0.079c2.86-5.239,5.69-10.529,9.19-15.38
	c8.23-0.16,16.47,0.271,24.7-0.17c-1.37-15.24-3.78-30.38-5.69-45.55c-13.13,19.7-24.17,40.83-36.66,60.98
	c-6.16,0.79-12.39,0.59-18.56,0.159C276.65,784.59,292.91,757.72,308.61,730.54 M225.45,730.42c22.18-0.06,44.36-0.03,66.54-0.01
	c-0.66,5.189-2.02,10.25-3.38,15.3c-7.84,0.57-15.71-0.24-23.54,0.48c-4.93,21.6-8.88,43.449-13.93,65
	c-5.71,2.09-12.69,0.699-18.87,0.569c4.46-21.859,9.22-43.68,13.54-65.58c-7.7-0.62-15.42-0.06-23.13-0.35
	C223.34,740.65,224.37,735.53,225.45,730.42 M172.02,736.03c14.47-8.78,32.01-4.71,47.99-5.641c-0.26,5.16-1.51,10.181-2.57,15.221
	c-10.09,0.93-20.27-0.41-30.35,0.62c-4.39,0.189-6.4,6.01-3.36,9.02c8.25,8.74,17.79,16.29,25.49,25.53
	c5.21,7.92,2.82,20.04-5.39,25.05c-15.71,9.59-35.14,5.68-52.59,5.97c0.9-5.14,1.93-10.26,3.11-15.34
	c10.56-0.2,21.13,0.19,31.68-0.11c4.85,0.25,7.18-5.88,5.26-9.72c-7.64-9.88-19.5-16.2-25.62-27.31
	C161.44,751.4,164.02,740.48,172.02,736.03 M17.13,730.4c12.98-0.03,25.96-0.03,38.95,0c7.47-0.24,13.88,5.55,16,12.439
	c3.13,9.98,1.09,22.13-6.94,29.3c-9.14,8.221-22.09,11.25-34.13,9.98c-0.5-3.47-0.73-6.96-0.76-10.46
	c8.61-0.4,18.62-1.88,24.01-9.42c2.82-4.95,2.25-13.38-3.87-15.521c-5.68-1.46-11.62-0.84-17.4-0.62
	c-5.34,21.721-9.29,43.79-14.39,65.58c-6.18,0.74-12.4,0.53-18.6,0.301v-2.341C6.57,783.43,10.77,756.65,17.13,730.4 M765.35,732.3
	c11.341-3.47,24.301-5.28,35.431-0.21c0.02,4.28-0.011,8.561-0.221,12.84c-14.189-3.1-30.939-3.14-42.14,7.49
	c-9.76,9.23-13.93,26.39-5.61,37.76c9.591,10.38,25.881,8.061,37.881,3.65c-1.271,5.04-1.44,10.57-3.761,15.22
	c-14.979,4.681-33.27,5.351-46.399-4.58c-12.78-10.1-14.03-29.27-7.33-43.22C738.51,747.13,750.63,735.93,765.35,732.3
	 M789.77,635.77c14.471-7.93,31.681-4.56,47.45-5.02c-0.71,5.05-1.67,10.07-2.68,15.07c-10.37,1.08-20.84-0.351-31.19,0.699
	c-4.319,0.74-5.38,6.641-2.25,9.36c7.53,7.8,15.811,14.86,23.28,22.74c7.771,7.99,5.26,23.01-4.649,28.12
	c-15.58,8.89-34.19,4.64-51.23,5.47c0.45-5.15,1.53-10.2,2.68-15.21c10.84-1.09,21.78,0.06,32.65-0.51
	c4.88-0.42,6.72-7.54,3.57-10.9c-7.53-8.439-17.36-14.83-23.771-24.25C777.97,653,780.64,640.43,789.77,635.77 M720.97,630.7
	c19.391-0.181,38.8-0.29,58.19,0.06c-0.82,5.03-1.94,10-2.86,15.01c-13.25,1.08-26.58-0.079-39.85,0.58
	c-1.15,5.761-3.101,11.391-3.49,17.28c11,0.12,22.021-0.33,33.021,0.18c-0.48,4.28-1.37,8.511-2.801,12.58
	c-11.01,0.221-22.029,0-33.029,0.051c-1.931,6.569-3.21,13.34-4.08,20.13c13.09,0.17,26.18-0.23,39.27,0.17
	c-0.649,5.229-1.399,10.5-3.189,15.49c-19.4,0.069-38.82,0.27-58.21-0.101C709.17,684.9,715.21,657.82,720.97,630.7 M647.04,630.78
	c22.16-0.4,44.36-0.24,66.53-0.08c-0.721,5.229-1.88,10.39-3.561,15.39c-7.83,0.4-15.68-0.3-23.5,0.311
	c-4.66,21.81-8.99,43.699-13.77,65.489c-6.19,0.811-12.45,0.5-18.66,0.16c3.6-22.08,9.52-43.76,13.16-65.84
	c-7.71-0.24-15.42,0.34-23.101-0.3C644.79,640.81,645.86,635.78,647.04,630.78 M610.13,630.79c6.98-0.41,13.97-0.33,20.95-0.03
	c3.87,27.07,8,54.16,10.88,81.351c-17.39,0.34-34.81,0.34-52.2,0c2.67-5.28,5.13-11.141,9.32-15.29c8.17-0.7,16.4,0.069,24.6-0.28
	c-1.97-15.29-4.08-30.56-6.01-45.86c-12.95,20.04-24.22,41.17-36.81,61.45c-6.03,0.351-12.08,0.3-18.101-0.02
	C577.84,684.63,594.35,657.89,610.13,630.79 M527.93,630.7c22.19-0.21,44.391-0.22,66.58,0.01c-0.83,5.17-2.08,10.26-3.59,15.271
	c-7.83,0.569-15.689-0.12-23.52,0.35c-4.98,21.93-8.601,44.21-14.28,65.939c-6.07,0.07-12.14,0.211-18.2-0.13
	c3.72-22.09,9.38-43.83,13.21-65.899c-7.68-0.28-15.36,0.26-23.03-0.271C525.65,640.81,526.54,635.7,527.93,630.7 M474.02,636.08
	c14.51-8.2,31.98-5.01,47.89-5.25c-0.62,5.15-1.58,10.25-2.891,15.26c-9.959,0.4-19.95-0.27-29.89,0.271
	c-4.56-0.04-6.56,6.04-3.6,9.14c7.78,8.19,16.47,15.53,24.16,23.81c7.44,8.301,4.22,22.851-5.67,27.71
	c-15.57,8.461-34,4.53-50.91,5.051c1.03-5.021,1.09-10.54,3.2-15.16c10.79-0.94,21.69,0.149,32.51-0.44
	c5-0.68,6.31-8.05,2.99-11.319c-7.29-7.681-15.98-14.051-22.56-22.391C462.93,654.57,464.6,641.19,474.02,636.08 M384.22,646.28
	c-3.8,16.72-7.18,33.55-10.84,50.31c9.02-0.21,18.68,1.3,26.95-3.25c13.6-6.25,20.31-22.5,18.15-36.81
	c-0.92-5.4-5.71-9.431-11.08-9.931C399.71,645.83,391.94,646.21,384.22,646.28 M368.85,630.65c11.38-0.2,22.76-0.021,34.14-0.08
	c9.08,0.08,18.92,1.239,26.16,7.26c6.47,5.3,8.73,14.1,8.41,22.16c-0.46,13.75-4.45,28.18-14.49,38.08
	c-10.41,10.449-25.66,14.47-40.07,14.27c-10.32-0.2-20.65,0.29-30.96-0.27C357.01,684.84,362.73,657.66,368.85,630.65
	 M301.86,632.94c0.01-2.811,3.19-2.32,5.12-2.421c17.86,0.2,35.73-0.14,53.59,0.171c-0.72,5.1-1.83,10.119-3.01,15.13
	c-13.13,0.92-26.32,0-39.46,0.439c-1.59,5.71-2.88,11.5-3.96,17.32c11.09,0.17,22.19-0.22,33.28,0.16
	c-0.53,4.319-1.33,8.609-2.65,12.77c-11.19,0.37-22.44-0.58-33.6,0.44c-1.33,6.52-2.75,13.04-3.91,19.6
	c13.1,0.2,26.21-0.189,39.31,0.16c-0.42,5.19-1.43,10.3-2.67,15.35c-19.45,0.521-38.94,0.23-58.41,0.141
	C290.29,685.66,296.5,659.37,301.86,632.94 M227.95,630.68c22.16-0.149,44.33-0.239,66.48,0.051c-0.8,5.17-2.01,10.26-3.54,15.26
	c-7.85,0.54-15.72-0.11-23.57,0.319c-4.82,21.95-8.7,44.141-14.19,65.921c-6.05,0.149-12.12,0.25-18.17-0.12
	c3.39-22.12,9.5-43.771,13.05-65.86c-7.66-0.29-15.33,0.27-22.98-0.3C225.57,640.79,226.6,635.69,227.95,630.68 M201.94,630.69
	c6.19-0.23,12.39-0.221,18.58,0.01c-5.15,27.16-11.34,54.12-16.87,81.21c-6.2,0.79-12.47,0.439-18.69,0.21
	C189.94,684.86,196.05,657.77,201.94,630.69 M120.1,630.86c7.56-0.49,15.18-0.511,22.74,0.01c6.61,18.79,12.11,37.99,19.1,56.63
	c4.63-18.75,7.99-37.82,12.16-56.68c5.68-0.45,11.4-0.37,17.09-0.061c-5.4,27.21-11.14,54.38-17.18,81.45
	c-7.6,0.1-15.23,0.39-22.81-0.18c-6.8-18.601-12.08-37.811-19.47-56.15c-3.91,18.76-6.87,37.78-11.58,56.351
	c-5.68,0.149-11.37,0.289-17.04-0.2C108.41,684.91,114.37,657.9,120.1,630.86 M37.93,630.69c6.18-0.23,12.36-0.23,18.54,0.02
	c-2.55,15.56-6.42,30.88-9.41,46.37c-1.3,6.81-3.25,15.85,2.96,20.86c8.44,5.04,20.53,2.29,26.39-5.521
	c4.54-5.78,5.1-13.36,6.81-20.24c2.87-13.81,5.94-27.569,8.82-41.38c6.14-0.42,12.31-0.31,18.47-0.1
	c-2.63,15.56-6.48,30.88-9.5,46.359c-2.03,8.79-2.63,18.78-9.54,25.41c-11.5,11.59-29.18,13.761-44.68,11.721
	c-8.86-1.11-17.64-6.9-19.91-15.91c-1.49-7.37-0.63-15.03,1.17-22.271C31.54,660.95,34.19,645.7,37.93,630.69 M198.99,147.77
	c54.67-0.63,109.33-1.39,164.01-0.99c94.01,0.86,188.07,1.25,282.01,5.24c33.24,1.18,66.721,4.07,98.88,13.05
	c17.62,5.17,35.9,13.26,46.261,29.23c25.609,0.65,51.21-1.07,76.83-0.72c8.699,0.32,19.42,2.13,23.659,10.81
	c4.471,10.51,0.32,22.01-3.13,32.19c-5.34,13.98-11.319,27.89-19.47,40.48c-3.14,5.84-16.25,5.3-14.22-2.95
	c8.229-15.31,13.62-33.2,9.67-50.6c-7.8-2.99-16.311-2.12-24.48-2.31c-41.569,0.57-82.779,6.84-124.05,11.29
	c-5.85,0.4-13.18-0.43-16.54-5.89c-1.83-4.32,3.32-6.8,6.76-7.41c13.5-2.55,26.7-6.52,39.551-11.38
	c4.88-2.24,10.989-5.53,11.26-11.6c-2.521-1.14-5.23-1.74-7.99-1.61c-109.46,0.2-218.94-0.21-328.39,0.2
	c19.02,54.16,39.05,107.99,58.63,161.96c39.939-19.17,81.66-34.35,123.89-47.63c61.67-19.05,124.33-35.19,187.9-46.51
	c11.96-1.78,23.88-4.52,36.029-4.45c7.261-0.27,14.58,6.23,13.66,13.77c-0.37,5.86-6.52,9.03-11.739,9.57
	c-37.98,4.43-75.29,13.21-112.11,23.35c-62.36,17.48-123.32,39.58-183.47,63.5C373.66,431.9,220.42,508.14,68.64,586.62
	c-8.55,4.1-16.74,8.979-25.55,12.53c0.4-4.311,1.34-8.53,2.32-12.73c30.69-145.03,61.23-290.09,91.97-435.1
	C157.73,148.06,178.47,148.96,198.99,147.77 M170.2,0H1024v2.35c-1.4,4.77-2.58,9.61-3.44,14.52
	c-40.51,193.81-80.699,387.7-121.319,581.49c-263.45,0.34-526.92,0.14-790.38,0.1c6.67-3.04,13.61-5.45,20.42-8.15
	C349.14,504.8,569.04,419.39,788.89,333.85c12.71-8.21,26.61-15.46,42.04-16.47c8.65-0.13,16.13-4.82,23.29-9.14
	c25.42-15.78,44.44-41.73,51.061-70.99c4.149-17.16,5.77-36.93-3.98-52.54c-3.67-6.38-11.25-8.21-18.05-8.81
	c-25.06-2.22-50.28-1.16-75.33,0.62c-6.77,1.09-8.11-7.53-12.55-10.9c-16.101-14.93-37.64-22.6-58.76-27.24
	C555.14,94.18,373.67,49.99,192.2,5.81C184.85,3.93,177.37,2.54,170.2,0"/>
<path fill="#931629" d="M18.91,720.08c284.1-0.24,568.2-0.12,852.3-0.061c-0.05,0.811-0.15,2.421-0.21,3.23c-3,0.25-6,0.38-9,0.34
	c-281.11-0.229-562.23,0.23-843.33-0.22C18.73,722.55,18.85,720.9,18.91,720.08"/>
</svg>
